<?xml version="1.0" encoding="UTF-8" standalone="no" ?><!DOCTYPE svg PUBLIC "-//W3C//DTD SVG 1.1//EN" "http://www.w3.org/Graphics/SVG/1.1/DTD/svg11.dtd">
<svg xmlns="http://www.w3.org/2000/svg" xmlns:xlink="http://www.w3.org/1999/xlink" version="1.1" width="800" height="500" xml:space="preserve"><desc>Created with Fabric.js 1.5.0</desc><defs></defs><g style="stroke: none; stroke-width: 1; stroke-dasharray: ; stroke-linecap: butt; stroke-linejoin: miter; stroke-miterlimit: 10; fill: none; fill-rule: nonzero; opacity: 1;" transform="translate(39.73000000000002 41.72999999999999) scale(5.55 5.55)" >
<path d="M 98 44.25 c -4.733 4.733 -10.666 7.184 -17.8 7.35 c -6.634 -0.133 -12.25 -2.283 -16.85 -6.449 l 5.701 -5.7 c 3.133 2.667 6.85 4.033 11.149 4.1 c 4.833 -0.134 8.866 -1.816 12.101 -5.05 c 3.232 -3.2 4.899 -7.233 5 -12.1 c -0.067 -4.066 -1.284 -7.6 -3.65 -10.6 c 1.967 -2 4.316 -3.35 7.05 -4.05 c 3.033 4.2 4.601 9.083 4.7 14.65 C 105.2 33.533 102.733 39.483 98 44.25 z" style="stroke: none; stroke-width: 1; stroke-dasharray: ; stroke-linecap: butt; stroke-linejoin: miter; stroke-miterlimit: 10; fill: #956235; fill-rule: evenodd; opacity: 1;" transform="" stroke-linecap="round" />
<path d="M 90.15 3.25 c -2.7 1.667 -5.051 3.767 -7.051 6.3 C 82.166 9.383 81.2 9.3 80.2 9.3 c -6.866 0.233 -11.967 3.35 -15.3 9.35 l -3.95 7.8 l 1.35 2.7 L 56.15 35.3 c -1.767 -2.167 -3.45 -3.216 -5.05 -3.149 c -1.3 0.066 -2.383 0.533 -3.25 1.399 L 30 51.4 c -1.033 1 -2.217 1.5 -3.55 1.5 c -1.333 0 -2.534 -0.5 -3.6 -1.5 L 1.5 30 c -2 -2.367 -2 -4.733 0 -7.1 L 22.9 1.5 c 1.033 -1 2.217 -1.5 3.55 -1.5 c 1.333 0 2.517 0.5 3.55 1.5 l 7.15 7.15 l -5.7 5.7 l -5 -5.05 L 9.3 26.45 l 17.15 17.1 l 15.7 -15.7 l 0.05 -0.05 c 0.5 -0.5 1.033 -0.95 1.6 -1.35 c -0.566 -0.434 -1.117 -0.917 -1.65 -1.45 L 40 22.9 l 5.7 -5.7 l 2.15 2.1 c 0.833 0.9 1.917 1.367 3.25 1.4 c 2.167 0.233 4.367 -1.667 6.6 -5.7 C 62.367 6.333 69.867 1.75 80.2 1.25 C 83.733 1.25 87.05 1.917 90.15 3.25 z" style="stroke: none; stroke-width: 1; stroke-dasharray: ; stroke-linecap: butt; stroke-linejoin: miter; stroke-miterlimit: 10; fill: #956235; fill-rule: evenodd; opacity: 1;" transform="" stroke-linecap="round" />
<path d="M 122.3 8.6 c 4.733 4.733 7.2 10.667 7.4 17.8 c -0.2 7.166 -2.667 13.117 -7.4 17.85 c -4.733 4.733 -10.683 7.2 -17.85 7.4 c -3.567 -0.033 -6.884 -0.733 -9.95 -2.1 c 2.7 -1.668 5.033 -3.75 7 -6.25 c 0.967 0.166 1.95 0.25 2.95 0.25 c 4.866 -0.101 8.917 -1.768 12.149 -5 c 3.2 -3.234 4.867 -7.283 5 -12.15 c -0.1 -4.833 -1.766 -8.867 -5 -12.1 c -3.232 -3.233 -7.283 -4.917 -12.149 -5.05 c -6.866 0.233 -11.95 3.367 -15.25 9.4 l -4 7.75 l 4 7.8 c 0.5 1 1.1 1.933 1.8 2.8 c -1.967 1.967 -4.316 3.316 -7.05 4.051 c -0.733 -1 -1.384 -2.067 -1.95 -3.201 c -2.267 -4 -4.483 -5.899 -6.65 -5.699 c -1.3 0.066 -2.366 0.517 -3.199 1.35 L 54.3 51.4 c -1.033 0.967 -2.233 1.449 -3.6 1.449 c -1.333 0 -2.517 -0.482 -3.55 -1.449 L 40 44.25 l 5.7 -5.75 l 5 5.051 l 15.75 -15.75 c 0.533 -0.5 1.083 -0.967 1.649 -1.4 C 67.5 26 66.934 25.534 66.4 25 l -1.65 -1.65 l 1.95 -3.8 c 0.634 -1.233 1.399 -2.35 2.3 -3.35 l 3.1 3.1 c 0.867 0.867 1.95 1.333 3.25 1.4 c 2.167 0.2 4.384 -1.717 6.65 -5.75 V 15 c 4.666 -8.7 12.15 -13.3 22.45 -13.8 C 111.617 1.367 117.566 3.833 122.3 8.6 z" style="stroke: none; stroke-width: 1; stroke-dasharray: ; stroke-linecap: butt; stroke-linejoin: miter; stroke-miterlimit: 10; fill: #3F2213; fill-rule: evenodd; opacity: 1;" transform="" stroke-linecap="round" />
<path d="M 47.1 1.5 c 1.033 -1 2.233 -1.5 3.6 -1.5 c 1.333 0 2.517 0.5 3.55 1.5 l 6.2 6.15 c -1.8 1.9 -3.317 4.05 -4.55 6.45 c -0.066 0.066 -0.117 0.15 -0.15 0.25 L 50.7 9.3 L 33.55 26.45 L 37.1 30 l -5.7 5.7 L 25.75 30 c -2 -2.367 -2 -4.75 0 -7.15 L 47.1 1.5 z" style="stroke: none; stroke-width: 1; stroke-dasharray: ; stroke-linecap: butt; stroke-linejoin: miter; stroke-miterlimit: 10; fill: #3F2213; fill-rule: evenodd; opacity: 1;" transform="" stroke-linecap="round" />
</g>
	<g transform="translate(399.61 391.69)">
		<text font-family="Abril Fatface" font-size="70" font-weight="normal" style="stroke: none; stroke-width: 1; stroke-dasharray: ; stroke-linecap: butt; stroke-linejoin: miter; stroke-miterlimit: 10; fill: #956235; fill-rule: nonzero; opacity: 1;" ><tspan x="-153.965" y="15.722" fill="#956235">mnml.tee</tspan></text>
	</g>
	<g transform="translate(398.39 464.21)">
		<text font-family="Abril Fatface" font-size="56" font-weight="normal" style="stroke: none; stroke-width: 1; stroke-dasharray: ; stroke-linecap: butt; stroke-linejoin: miter; stroke-miterlimit: 10; fill: #3f2213; fill-rule: nonzero; opacity: 1;" ><tspan x="-192.5" y="12.5776" fill="#3f2213">Keep it Simple.</tspan></text>
	</g>
</svg>